# xmcd
#
# Track frame offsets:
# 182
# 8932
# 23772
# 37727
# 51235
# 64652
# 78405
# 90722
# 105357
# 117145
# 131612
# 146782
#
# Disc length: 2119 seconds
#
#
# Revision: 0
# Processed by: cddbd v1.5.1PL2 Copyright (c) Steve Scherf et al.
# Submitted via: FreeRIP 2.944 
#
DISCID=9308450c
DTITLE=Tonico e Tinoco - Popularidade
DYEAR=1996
DGENRE=Oldies
TTITLE0=Festa na roça
TTITLE1=Chico mineiro
TTITLE2=Adeus morena adeus
TTITLE3=O menino da porteira
TTITLE4=Cana verde
TTITLE5=Moda de mula preta
TTITLE6=Moreninha linda
TTITLE7=Vingança do chico mineiro
TTITLE8=Curitibana
TTITLE9=Besta ruana
TTITLE10=Tristeza do jeca
TTITLE11=Destinos iguais
EXTD=
EXTT0=
EXTT1=
EXTT2=
EXTT3=
EXTT4=
EXTT5=
EXTT6=
EXTT7=
EXTT8=
EXTT9=
EXTT10=
EXTT11=
PLAYORDER=
